<?xml version="1.0" encoding="UTF-8" standalone="no"?>
<!DOCTYPE svg PUBLIC "-//W3C//DTD SVG 1.1//EN" "http://www.w3.org/Graphics/SVG/1.1/DTD/svg11.dtd">
<svg width="100%" height="100%" viewBox="0 0 128 128" version="1.1" xmlns="http://www.w3.org/2000/svg" xmlns:xlink="http://www.w3.org/1999/xlink" xml:space="preserve" xmlns:serif="http://www.serif.com/" style="fill-rule:evenodd;clip-rule:evenodd;stroke-linejoin:round;stroke-miterlimit:2;">
    <g transform="matrix(0.554264,0,0,0.554264,-51.6172,-41.6316)">
        <g transform="matrix(0.198449,0.343723,-0.704365,0.406665,322.518,75.4861)">
            <path d="M285.869,158L285.869,109C285.869,95.71 265.764,84.921 241,84.921C216.236,84.921 196.131,95.71 196.131,109L196.131,158C196.131,171.29 216.236,182.079 241,182.079C265.764,182.079 285.869,171.29 285.869,158Z" style="stroke:black;stroke-width:20.31px;"/>
        </g>
        <g transform="matrix(0.929213,0,0,0.929213,2.19222,71.3169)">
            <circle cx="257" cy="174" r="62" style="fill:rgb(251,78,96);stroke:black;stroke-width:15.07px;stroke-linecap:round;stroke-miterlimit:1.5;"/>
        </g>
        <g transform="matrix(1.64231,-1.64231,1.64231,1.64231,-466.837,369.312)">
            <path d="M294.254,128.236C294.757,127.619 294.987,126.823 294.891,126.032C294.794,125.242 294.38,124.524 293.743,124.046C283.111,116.24 270.243,112 257,112C243.757,112 230.889,116.24 220.264,124.055C219.63,124.532 219.217,125.246 219.121,126.034C219.025,126.821 219.254,127.614 219.754,128.229C219.746,128.237 219.746,128.237 219.747,128.237C220.787,129.515 222.651,129.746 223.971,128.759C233.534,121.761 245.099,117.973 257,117.973C268.901,117.973 280.466,121.761 290.037,128.749C291.352,129.731 293.207,129.502 294.243,128.229C294.254,128.237 294.254,128.237 294.254,128.236Z"/>
        </g>
        <g transform="matrix(1.36859,-1.36859,1.36859,1.36859,-348.864,346.593)">
            <path d="M293.787,128.81C294.415,128.039 294.7,127.043 294.574,126.056C294.448,125.068 293.923,124.176 293.121,123.586C282.607,116.075 269.984,112 257,112C244.016,112 231.393,116.075 220.89,123.601C220.092,124.188 219.569,125.076 219.444,126.058C219.319,127.04 219.602,128.031 220.227,128.799C220.213,128.811 220.213,128.811 220.214,128.811C221.498,130.388 223.792,130.686 225.436,129.488C234.628,122.944 245.657,119.412 257,119.412C268.343,119.412 279.372,122.944 288.576,129.471C290.211,130.662 292.493,130.367 293.77,128.798C293.787,128.811 293.787,128.811 293.787,128.81Z"/>
        </g>
        <g transform="matrix(1.06066,-1.06066,1.06066,1.06066,-216.145,321.035)">
            <path d="M292.976,129.807C293.823,128.766 294.201,127.419 294.019,126.089C293.836,124.759 293.11,123.564 292.013,122.79C281.717,115.793 269.527,112 257,112C244.473,112 232.283,115.793 222.008,122.819C220.919,123.587 220.197,124.773 220.016,126.094C219.835,127.415 220.21,128.751 221.051,129.785C221.025,129.808 221.026,129.81 221.028,129.811C222.769,131.949 225.862,132.388 228.129,130.819C236.627,125.087 246.677,122.015 257,122.015C267.322,122.015 277.371,125.086 285.891,130.782C288.142,132.34 291.213,131.903 292.941,129.78C292.975,129.807 292.975,129.807 292.976,129.807Z"/>
        </g>
        <g transform="matrix(0.616784,0,0,0.616784,92.355,135.548)">
            <path d="M241,158L241,109" style="fill:none;stroke:black;stroke-width:22.7px;stroke-linecap:round;stroke-miterlimit:1.5;"/>
        </g>
        <g transform="matrix(-0.429337,-0.651266,0.414061,-0.272963,279.049,433.083)">
            <path d="M241,158L241,109" style="fill:none;stroke:black;stroke-width:21.42px;stroke-linecap:round;stroke-miterlimit:1.5;"/>
        </g>
    </g>
</svg>
